<svg xmlns="http://www.w3.org/2000/svg" id="export" class="canvas" preserveAspectRatio="xMidYMid meet" style="" width="146" height="592"><rect id="background" fill="#fff" pointer-events="all" width="146" height="592"/><g id="origin" transform="translate(6.6234375000000005, 6.6234375000000005) scale(1)"><g id="clusters" class="clusters"/><g id="edge-paths" class="edge-paths"><defs><marker id="arrowhead-vee" viewBox="0 0 10 10" refX="9" refY="5" markerUnits="strokeWidth" markerWidth="8" markerHeight="6" orient="auto" style="fill: rgb(0, 0, 0);"><path d="M 0 0 L 10 5 L 0 10 L 4 5 z" style="stroke-width: 1;"/></marker><marker id="arrowhead-vee-select" viewBox="0 0 10 10" refX="9" refY="5" markerUnits="strokeWidth" markerWidth="8" markerHeight="6" orient="auto" style="fill: rgb(238, 0, 0);"><path d="M 0 0 L 10 5 L 0 10 L 4 5 z" style="stroke-width: 1;"/></marker></defs><path id="edge-input_0_output_array" class="edge-path" d="M66.234375,21.0302734375L66.234375,22.696940104166668C66.234375,24.363606770833332,66.234375,27.696940104166668,66.234375,32.863606770833336C66.234375,38.0302734375,66.234375,45.0302734375,66.234375,52.0302734375C66.234375,59.0302734375,66.234375,66.0302734375,66.234375,71.19694010416667C66.234375,76.36360677083333,66.234375,79.69694010416667,66.234375,81.36360677083333L66.234375,83.0302734375" style="stroke: rgb(0, 0, 0); stroke-width: 1px; fill: none; marker-end: url(&quot;#arrowhead-vee&quot;);"/><path id="edge-n7-p0_n8-p0" class="edge-path" d="M66.234375,136.0302734375L66.234375,139.5302734375C66.234375,143.0302734375,66.234375,150.0302734375,66.234375,157.0302734375C66.234375,164.0302734375,66.234375,171.0302734375,66.234375,174.5302734375L66.234375,178.0302734375" style="stroke: rgb(0, 0, 0); stroke-width: 1px; fill: none; marker-end: url(&quot;#arrowhead-vee&quot;);"/><path id="edge-n8-p0_n9-p0" class="edge-path" d="M66.234375,199.060546875L66.234375,202.560546875C66.234375,206.060546875,66.234375,213.060546875,66.234375,220.060546875C66.234375,227.060546875,66.234375,234.060546875,66.234375,237.560546875L66.234375,241.060546875" style="stroke: rgb(0, 0, 0); stroke-width: 1px; fill: none; marker-end: url(&quot;#arrowhead-vee&quot;);"/><path id="edge-n9-p0_n10-p0" class="edge-path" d="M66.234375,294.060546875L66.234375,297.560546875C66.234375,301.060546875,66.234375,308.060546875,66.234375,315.060546875C66.234375,322.060546875,66.234375,329.060546875,66.234375,332.560546875L66.234375,336.060546875" style="stroke: rgb(0, 0, 0); stroke-width: 1px; fill: none; marker-end: url(&quot;#arrowhead-vee&quot;);"/><path id="edge-n10-p0_n11-p0" class="edge-path" d="M66.234375,357.0908203125L66.234375,360.5908203125C66.234375,364.0908203125,66.234375,371.0908203125,66.234375,378.0908203125C66.234375,385.0908203125,66.234375,392.0908203125,66.234375,395.5908203125L66.234375,399.0908203125" style="stroke: rgb(0, 0, 0); stroke-width: 1px; fill: none; marker-end: url(&quot;#arrowhead-vee&quot;);"/><path id="edge-n11-p0_n12-p0" class="edge-path" d="M66.234375,452.0908203125L66.234375,455.5908203125C66.234375,459.0908203125,66.234375,466.0908203125,66.234375,473.0908203125C66.234375,480.0908203125,66.234375,487.0908203125,66.234375,490.5908203125L66.234375,494.0908203125" style="stroke: rgb(0, 0, 0); stroke-width: 1px; fill: none; marker-end: url(&quot;#arrowhead-vee&quot;);"/><path id="edge-dense_2_output_array" class="edge-path" d="M66.234375,515.12109375L66.234375,518.62109375C66.234375,522.12109375,66.234375,529.12109375,66.234375,536.12109375C66.234375,543.12109375,66.234375,550.12109375,66.234375,553.62109375L66.234375,557.12109375" style="stroke: rgb(0, 0, 0); stroke-width: 1px; fill: none; marker-end: url(&quot;#arrowhead-vee&quot;);"/></g><g id="edge-labels" class="edge-labels"><text class="edge-label" id="edge-label-edge-input_0_output_array" transform="translate(71.234375,46.0302734375)" style="opacity: 1; font-family: -apple-system, BlinkMacSystemFont, &quot;Segoe WPC&quot;, &quot;Segoe UI&quot;, Ubuntu, &quot;Droid Sans&quot;, sans-serif, &quot;PingFang SC&quot;; font-size: 10px;"><tspan xml:space="preserve" dy="1em" x="1">5</tspan></text><text class="edge-label" id="edge-label-edge-n7-p0_n8-p0" transform="translate(71.234375,151.0302734375)" style="opacity: 1; font-family: -apple-system, BlinkMacSystemFont, &quot;Segoe WPC&quot;, &quot;Segoe UI&quot;, Ubuntu, &quot;Droid Sans&quot;, sans-serif, &quot;PingFang SC&quot;; font-size: 10px;"><tspan xml:space="preserve" dy="1em" x="1">64</tspan></text><text class="edge-label" id="edge-label-edge-n8-p0_n9-p0" transform="translate(71.234375,214.060546875)" style="opacity: 1; font-family: -apple-system, BlinkMacSystemFont, &quot;Segoe WPC&quot;, &quot;Segoe UI&quot;, Ubuntu, &quot;Droid Sans&quot;, sans-serif, &quot;PingFang SC&quot;; font-size: 10px;"><tspan xml:space="preserve" dy="1em" x="1">64</tspan></text><text class="edge-label" id="edge-label-edge-n9-p0_n10-p0" transform="translate(71.234375,309.060546875)" style="opacity: 1; font-family: -apple-system, BlinkMacSystemFont, &quot;Segoe WPC&quot;, &quot;Segoe UI&quot;, Ubuntu, &quot;Droid Sans&quot;, sans-serif, &quot;PingFang SC&quot;; font-size: 10px;"><tspan xml:space="preserve" dy="1em" x="1">32</tspan></text><text class="edge-label" id="edge-label-edge-n10-p0_n11-p0" transform="translate(71.234375,372.0908203125)" style="opacity: 1; font-family: -apple-system, BlinkMacSystemFont, &quot;Segoe WPC&quot;, &quot;Segoe UI&quot;, Ubuntu, &quot;Droid Sans&quot;, sans-serif, &quot;PingFang SC&quot;; font-size: 10px;"><tspan xml:space="preserve" dy="1em" x="1">32</tspan></text><text class="edge-label" id="edge-label-edge-n11-p0_n12-p0" transform="translate(71.234375,467.0908203125)" style="opacity: 1; font-family: -apple-system, BlinkMacSystemFont, &quot;Segoe WPC&quot;, &quot;Segoe UI&quot;, Ubuntu, &quot;Droid Sans&quot;, sans-serif, &quot;PingFang SC&quot;; font-size: 10px;"><tspan xml:space="preserve" dy="1em" x="1">6</tspan></text><text class="edge-label" id="edge-label-edge-dense_2_output_array" transform="translate(71.234375,530.12109375)" style="opacity: 1; font-family: -apple-system, BlinkMacSystemFont, &quot;Segoe WPC&quot;, &quot;Segoe UI&quot;, Ubuntu, &quot;Droid Sans&quot;, sans-serif, &quot;PingFang SC&quot;; font-size: 10px;"><tspan xml:space="preserve" dy="1em" x="1">6</tspan></text></g><g id="nodes" class="nodes"><g id="input-name-input_0_output_array" class="node graph-input" transform="translate(2.8984375,0)" style="opacity: 1;"><g class="node-item graph-item-input" transform="translate(0,0)"><path d="M5,0h116.671875a5,5 0 0 1 5,5v11.0302734375a5,5 0 0 1 -5,5h-116.671875a5,5 0 0 1 -5,-5v-11.0302734375a5,5 0 0 1 5,-5z" style="stroke: rgb(0, 0, 0); fill: rgb(238, 238, 238); stroke-width: 0;"/><text x="6" y="15" style="font-family: -apple-system, BlinkMacSystemFont, &quot;Segoe WPC&quot;, &quot;Segoe UI&quot;, Ubuntu, &quot;Droid Sans&quot;, sans-serif, &quot;PingFang SC&quot;; font-size: 11px; text-rendering: geometricprecision;">input_0_output_array</text><title>STAI_FORMAT_FLOAT[5]</title></g><path class="node border" d="M5,0h116.671875a5,5 0 0 1 5,5v11.0302734375a5,5 0 0 1 -5,5h-116.671875a5,5 0 0 1 -5,-5v-11.0302734375a5,5 0 0 1 5,-5z" style="stroke: rgb(51, 51, 51); fill: none; stroke-width: 1px;"/></g><g id="node-name-dense_dense" class="node graph-node" transform="translate(23.1328125,83.0302734375)" style="opacity: 1;"><g class="node-item node-item-type node-item-type-layer" transform="translate(0,0)"><path d="M5,0h76.203125a5,5 0 0 1 5,5v16a0,0 0 0 1 0,0h-86.203125a0,0 0 0 1 0,0v-16a5,5 0 0 1 5,-5z" style="stroke: rgb(0, 0, 0); fill: rgb(51, 85, 136); stroke-width: 0;"/><text x="6" y="15" style="font-family: -apple-system, BlinkMacSystemFont, &quot;Segoe WPC&quot;, &quot;Segoe UI&quot;, Ubuntu, &quot;Droid Sans&quot;, sans-serif, &quot;PingFang SC&quot;; font-size: 11px; text-rendering: geometricprecision; fill: rgb(255, 255, 255);">Dense</text><title>dense_dense</title></g><g class="node-attribute" transform="translate(0,21)"><path d="M0,0h86.203125a0,0 0 0 1 0,0v27a5,5 0 0 1 -5,5h-76.203125a5,5 0 0 1 -5,-5v-27a0,0 0 0 1 0,0z" style="stroke: rgb(0, 0, 0); fill: rgb(255, 255, 255); stroke-width: 0;"/><text id="initializer-dense_dense_weights_array" xml:space="preserve" x="6" y="13" style="font-family: -apple-system, BlinkMacSystemFont, &quot;Segoe WPC&quot;, &quot;Segoe UI&quot;, Ubuntu, &quot;Droid Sans&quot;, sans-serif, &quot;PingFang SC&quot;; font-size: 9px; font-weight: 400; text-rendering: geometricprecision;"><title>STAI_FORMAT_FLOAT[64,5]</title><tspan style="font-weight: bold;">Weight</tspan><tspan>〈64×5〉</tspan></text><text id="initializer-dense_dense_bias_array" xml:space="preserve" x="6" y="26" style="font-family: -apple-system, BlinkMacSystemFont, &quot;Segoe WPC&quot;, &quot;Segoe UI&quot;, Ubuntu, &quot;Droid Sans&quot;, sans-serif, &quot;PingFang SC&quot;; font-size: 9px; font-weight: 400; text-rendering: geometricprecision;"><title>STAI_FORMAT_FLOAT[64]</title><tspan style="font-weight: bold;">Weight</tspan><tspan>〈64〉</tspan></text><line class="node" x1="0" x2="86.203125" y1="0" y2="0" style="stroke: rgb(51, 51, 51); fill: none; stroke-width: 1px;"/></g><path class="node border" d="M5,0h76.203125a5,5 0 0 1 5,5v43a5,5 0 0 1 -5,5h-76.203125a5,5 0 0 1 -5,-5v-43a5,5 0 0 1 5,-5z" style="stroke: rgb(51, 51, 51); fill: none; stroke-width: 1px;"/></g><g id="node-name-dense" class="node graph-node" transform="translate(24.4140625,178.0302734375)" style="opacity: 1;"><g class="node-item node-item-type node-item-type-activation" transform="translate(0,0)"><path d="M5,0h73.640625a5,5 0 0 1 5,5v11.0302734375a5,5 0 0 1 -5,5h-73.640625a5,5 0 0 1 -5,-5v-11.0302734375a5,5 0 0 1 5,-5z" style="stroke: rgb(0, 0, 0); fill: rgb(112, 41, 33); stroke-width: 0;"/><text x="6" y="15" style="font-family: -apple-system, BlinkMacSystemFont, &quot;Segoe WPC&quot;, &quot;Segoe UI&quot;, Ubuntu, &quot;Droid Sans&quot;, sans-serif, &quot;PingFang SC&quot;; font-size: 11px; text-rendering: geometricprecision; fill: rgb(255, 255, 255);">Non Linearity</text><title>dense</title></g><path class="node border" d="M5,0h73.640625a5,5 0 0 1 5,5v11.0302734375a5,5 0 0 1 -5,5h-73.640625a5,5 0 0 1 -5,-5v-11.0302734375a5,5 0 0 1 5,-5z" style="stroke: rgb(51, 51, 51); fill: none; stroke-width: 1px;"/></g><g id="node-name-dense_1_dense" class="node graph-node" transform="translate(20.296875,241.060546875)" style="opacity: 1;"><g class="node-item node-item-type node-item-type-layer" transform="translate(0,0)"><path d="M5,0h81.875a5,5 0 0 1 5,5v16a0,0 0 0 1 0,0h-91.875a0,0 0 0 1 0,0v-16a5,5 0 0 1 5,-5z" style="stroke: rgb(0, 0, 0); fill: rgb(51, 85, 136); stroke-width: 0;"/><text x="6" y="15" style="font-family: -apple-system, BlinkMacSystemFont, &quot;Segoe WPC&quot;, &quot;Segoe UI&quot;, Ubuntu, &quot;Droid Sans&quot;, sans-serif, &quot;PingFang SC&quot;; font-size: 11px; text-rendering: geometricprecision; fill: rgb(255, 255, 255);">Dense</text><title>dense_1_dense</title></g><g class="node-attribute" transform="translate(0,21)"><path d="M0,0h91.875a0,0 0 0 1 0,0v27a5,5 0 0 1 -5,5h-81.875a5,5 0 0 1 -5,-5v-27a0,0 0 0 1 0,0z" style="stroke: rgb(0, 0, 0); fill: rgb(255, 255, 255); stroke-width: 0;"/><text id="initializer-dense_1_dense_weights_array" xml:space="preserve" x="6" y="13" style="font-family: -apple-system, BlinkMacSystemFont, &quot;Segoe WPC&quot;, &quot;Segoe UI&quot;, Ubuntu, &quot;Droid Sans&quot;, sans-serif, &quot;PingFang SC&quot;; font-size: 9px; font-weight: 400; text-rendering: geometricprecision;"><title>STAI_FORMAT_FLOAT[32,64]</title><tspan style="font-weight: bold;">Weight</tspan><tspan>〈32×64〉</tspan></text><text id="initializer-dense_1_dense_bias_array" xml:space="preserve" x="6" y="26" style="font-family: -apple-system, BlinkMacSystemFont, &quot;Segoe WPC&quot;, &quot;Segoe UI&quot;, Ubuntu, &quot;Droid Sans&quot;, sans-serif, &quot;PingFang SC&quot;; font-size: 9px; font-weight: 400; text-rendering: geometricprecision;"><title>STAI_FORMAT_FLOAT[32]</title><tspan style="font-weight: bold;">Weight</tspan><tspan>〈32〉</tspan></text><line class="node" x1="0" x2="91.875" y1="0" y2="0" style="stroke: rgb(51, 51, 51); fill: none; stroke-width: 1px;"/></g><path class="node border" d="M5,0h81.875a5,5 0 0 1 5,5v43a5,5 0 0 1 -5,5h-81.875a5,5 0 0 1 -5,-5v-43a5,5 0 0 1 5,-5z" style="stroke: rgb(51, 51, 51); fill: none; stroke-width: 1px;"/></g><g id="node-name-dense_1" class="node graph-node" transform="translate(24.4140625,336.060546875)" style="opacity: 1;"><g class="node-item node-item-type node-item-type-activation" transform="translate(0,0)"><path d="M5,0h73.640625a5,5 0 0 1 5,5v11.0302734375a5,5 0 0 1 -5,5h-73.640625a5,5 0 0 1 -5,-5v-11.0302734375a5,5 0 0 1 5,-5z" style="stroke: rgb(0, 0, 0); fill: rgb(112, 41, 33); stroke-width: 0;"/><text x="6" y="15" style="font-family: -apple-system, BlinkMacSystemFont, &quot;Segoe WPC&quot;, &quot;Segoe UI&quot;, Ubuntu, &quot;Droid Sans&quot;, sans-serif, &quot;PingFang SC&quot;; font-size: 11px; text-rendering: geometricprecision; fill: rgb(255, 255, 255);">Non Linearity</text><title>dense_1</title></g><path class="node border" d="M5,0h73.640625a5,5 0 0 1 5,5v11.0302734375a5,5 0 0 1 -5,5h-73.640625a5,5 0 0 1 -5,-5v-11.0302734375a5,5 0 0 1 5,-5z" style="stroke: rgb(51, 51, 51); fill: none; stroke-width: 1px;"/></g><g id="node-name-dense_2_dense" class="node graph-node" transform="translate(23.2734375,399.0908203125)" style="opacity: 1;"><g class="node-item node-item-type node-item-type-layer" transform="translate(0,0)"><path d="M5,0h75.921875a5,5 0 0 1 5,5v16a0,0 0 0 1 0,0h-85.921875a0,0 0 0 1 0,0v-16a5,5 0 0 1 5,-5z" style="stroke: rgb(0, 0, 0); fill: rgb(51, 85, 136); stroke-width: 0;"/><text x="6" y="15" style="font-family: -apple-system, BlinkMacSystemFont, &quot;Segoe WPC&quot;, &quot;Segoe UI&quot;, Ubuntu, &quot;Droid Sans&quot;, sans-serif, &quot;PingFang SC&quot;; font-size: 11px; text-rendering: geometricprecision; fill: rgb(255, 255, 255);">Dense</text><title>dense_2_dense</title></g><g class="node-attribute" transform="translate(0,21)"><path d="M0,0h85.921875a0,0 0 0 1 0,0v27a5,5 0 0 1 -5,5h-75.921875a5,5 0 0 1 -5,-5v-27a0,0 0 0 1 0,0z" style="stroke: rgb(0, 0, 0); fill: rgb(255, 255, 255); stroke-width: 0;"/><text id="initializer-dense_2_dense_weights_array" xml:space="preserve" x="6" y="13" style="font-family: -apple-system, BlinkMacSystemFont, &quot;Segoe WPC&quot;, &quot;Segoe UI&quot;, Ubuntu, &quot;Droid Sans&quot;, sans-serif, &quot;PingFang SC&quot;; font-size: 9px; font-weight: 400; text-rendering: geometricprecision;"><title>STAI_FORMAT_FLOAT[6,32]</title><tspan style="font-weight: bold;">Weight</tspan><tspan>〈6×32〉</tspan></text><text id="initializer-dense_2_dense_bias_array" xml:space="preserve" x="6" y="26" style="font-family: -apple-system, BlinkMacSystemFont, &quot;Segoe WPC&quot;, &quot;Segoe UI&quot;, Ubuntu, &quot;Droid Sans&quot;, sans-serif, &quot;PingFang SC&quot;; font-size: 9px; font-weight: 400; text-rendering: geometricprecision;"><title>STAI_FORMAT_FLOAT[6]</title><tspan style="font-weight: bold;">Weight</tspan><tspan>〈6〉</tspan></text><line class="node" x1="0" x2="85.921875" y1="0" y2="0" style="stroke: rgb(51, 51, 51); fill: none; stroke-width: 1px;"/></g><path class="node border" d="M5,0h75.921875a5,5 0 0 1 5,5v43a5,5 0 0 1 -5,5h-75.921875a5,5 0 0 1 -5,-5v-43a5,5 0 0 1 5,-5z" style="stroke: rgb(51, 51, 51); fill: none; stroke-width: 1px;"/></g><g id="node-name-dense_2" class="node graph-node" transform="translate(24.4140625,494.0908203125)" style="opacity: 1;"><g class="node-item node-item-type node-item-type-activation" transform="translate(0,0)"><path d="M5,0h73.640625a5,5 0 0 1 5,5v11.0302734375a5,5 0 0 1 -5,5h-73.640625a5,5 0 0 1 -5,-5v-11.0302734375a5,5 0 0 1 5,-5z" style="stroke: rgb(0, 0, 0); fill: rgb(112, 41, 33); stroke-width: 0;"/><text x="6" y="15" style="font-family: -apple-system, BlinkMacSystemFont, &quot;Segoe WPC&quot;, &quot;Segoe UI&quot;, Ubuntu, &quot;Droid Sans&quot;, sans-serif, &quot;PingFang SC&quot;; font-size: 11px; text-rendering: geometricprecision; fill: rgb(255, 255, 255);">Non Linearity</text><title>dense_2</title></g><path class="node border" d="M5,0h73.640625a5,5 0 0 1 5,5v11.0302734375a5,5 0 0 1 -5,5h-73.640625a5,5 0 0 1 -5,-5v-11.0302734375a5,5 0 0 1 5,-5z" style="stroke: rgb(51, 51, 51); fill: none; stroke-width: 1px;"/></g><g class="node" transform="translate(0,557.12109375)" style="opacity: 1;"><g class="node-item graph-item-output" transform="translate(0,0)"><path d="M5,0h122.46875a5,5 0 0 1 5,5v11.0302734375a5,5 0 0 1 -5,5h-122.46875a5,5 0 0 1 -5,-5v-11.0302734375a5,5 0 0 1 5,-5z" style="stroke: rgb(0, 0, 0); fill: rgb(238, 238, 238); stroke-width: 0;"/><text x="6" y="15" style="font-family: -apple-system, BlinkMacSystemFont, &quot;Segoe WPC&quot;, &quot;Segoe UI&quot;, Ubuntu, &quot;Droid Sans&quot;, sans-serif, &quot;PingFang SC&quot;; font-size: 11px; text-rendering: geometricprecision;">dense_2_output_array</text><title>STAI_FORMAT_FLOAT[6]</title></g><path class="node border" d="M5,0h122.46875a5,5 0 0 1 5,5v11.0302734375a5,5 0 0 1 -5,5h-122.46875a5,5 0 0 1 -5,-5v-11.0302734375a5,5 0 0 1 5,-5z" style="stroke: rgb(51, 51, 51); fill: none; stroke-width: 1px;"/></g></g></g></svg>